<svg id="Layer_1" data-name="Layer 1" xmlns="http://www.w3.org/2000/svg" viewBox="0 0 495 160"><defs><style>.cls-1{fill:#fff;}.cls-2{fill:#ff4500;}</style></defs><circle class="cls-1" cx="444.7" cy="50.83" r="11.29"/><path class="cls-1" d="M284.08,98.83c5.5,0,8.7-4.11,8.46-8.16a26.37,26.37,0,0,0-.56-4.55c-3.37-14.61-15.26-25.41-29.4-25.41-16.76,0-30.35,15.17-30.35,33.88s13.59,33.88,30.35,33.88c10.5,0,18-3.82,23.46-9.81a6.54,6.54,0,0,0-1.07-9.77c-2.64-1.83-6-1.21-8.43.86s-6.81,6-14,6c-8.54,0-15.66-7.28-17.29-16.94Zm-21.5-25.41c7.69,0,14.22,5.89,16.64,14.11H245.94C248.37,79.31,254.9,73.42,262.58,73.42Z"/><path class="cls-1" d="M232.93,67.28a6.34,6.34,0,0,0-5.3-6.26c-9.25-1.4-17.9,2.06-22.93,8.31v-.86a6.36,6.36,0,0,0-12.71,0v52a6.52,6.52,0,0,0,6,6.59,6.35,6.35,0,0,0,6.75-6.34V93.89c0-11.87,8.92-21.61,21.17-20.29a5.31,5.31,0,0,0,1.26,0A6.34,6.34,0,0,0,232.93,67.28Z"/><path class="cls-1" d="M451.05,74.12a6.35,6.35,0,0,0-12.7,0v46.59a6.35,6.35,0,0,0,12.7,0Z"/><path class="cls-1" d="M356.46,38.83a6.35,6.35,0,0,0-6.35-6.36h0a6.35,6.35,0,0,0-6.35,6.36V67.2a22.13,22.13,0,0,0-16.24-6.49c-16.76,0-30.35,15.17-30.35,33.88s13.59,33.88,30.35,33.88a22.41,22.41,0,0,0,16.35-6.56,6.35,6.35,0,0,0,12.59-1.2Zm-28.94,76.94c-9.74,0-17.64-9.48-17.64-21.18s7.9-21.17,17.64-21.17,17.65,9.48,17.65,21.17S337.27,115.77,327.52,115.77Z"/><path class="cls-1" d="M422.82,38.83a6.36,6.36,0,0,0-6.36-6.36h0a6.36,6.36,0,0,0-6.35,6.36V67.2a22.13,22.13,0,0,0-16.23-6.49c-16.77,0-30.36,15.17-30.36,33.88s13.59,33.88,30.36,33.88a22.45,22.45,0,0,0,16.35-6.56,6.35,6.35,0,0,0,12.59-1.2Zm-28.94,76.94c-9.75,0-17.65-9.48-17.65-21.18s7.9-21.17,17.65-21.17,17.64,9.48,17.64,21.17S403.62,115.77,393.88,115.77Z"/><path class="cls-1" d="M483.33,120.71V73.42H489a5.79,5.79,0,0,0,5.83-5.28,5.66,5.66,0,0,0-5.64-6h-5.84v-9a6.49,6.49,0,0,0-5.93-6.55A6.36,6.36,0,0,0,470.62,53v9.17h-5.26a5.77,5.77,0,0,0-5.82,5.27,5.65,5.65,0,0,0,5.63,6h5.45v47.29a6.35,6.35,0,0,0,6.36,6.35h0A6.35,6.35,0,0,0,483.33,120.71Z"/><circle class="cls-2" cx="82.36" cy="80" r="73" transform="translate(-32.45 81.67) rotate(-45)"/><path class="cls-1" d="M82.36,13a67,67,0,1,1-67,67,67,67,0,0,1,67-67m0-12a79,79,0,1,0,79,79,79.09,79.09,0,0,0-79-79Z"/><path class="cls-1" d="M127,80a9.77,9.77,0,0,0-16.55-7c-6.68-4.82-15.88-7.93-26.13-8.29l4.45-20.94,14.55,3.09a7,7,0,1,0,.71-3.41L87.81,40a1.73,1.73,0,0,0-1.31.24,1.76,1.76,0,0,0-.76,1.1l-5,23.37C70.37,65,61,68.08,54.26,73a9.76,9.76,0,1,0-10.76,16,19.37,19.37,0,0,0-.23,3c0,15,17.5,27.22,39.08,27.22s39.09-12.19,39.09-27.22a19.21,19.21,0,0,0-.23-2.94A9.77,9.77,0,0,0,127,80ZM60,87a7,7,0,1,1,7,7A7,7,0,0,1,60,87ZM99,105.43c-4.77,4.75-13.89,5.12-16.58,5.12s-11.81-.37-16.57-5.12a1.81,1.81,0,0,1,2.56-2.56c3,3,9.42,4.07,14,4.07s11-1.07,14-4.07A1.81,1.81,0,0,1,99,105.43ZM97.72,94a7,7,0,1,1,7-7A7,7,0,0,1,97.72,94Z"/></svg>