<?xml version="1.0" encoding="utf-8"?>
<!-- Generator: Adobe Illustrator 21.1.0, SVG Export Plug-In . SVG Version: 6.00 Build 0)  -->
<svg version="1.1" xmlns="http://www.w3.org/2000/svg" xmlns:xlink="http://www.w3.org/1999/xlink" x="0px" y="0px"
	 viewBox="0 0 397.4 202.4" style="enable-background:new 0 0 397.4 202.4;" xml:space="preserve">
<style type="text/css">
	.st0{fill:#FF4500;}
	.st1{fill:#222222;}
	.st2{display:none;}
	.st3{display:inline;fill:none;stroke:#D7D7D7;stroke-width:0.5;stroke-miterlimit:10;}
</style>
<g id="Artwork">
	<g>
		<circle class="st0" cx="294.2" cy="73.3" r="10.6"/>
		<path class="st1" d="M142.8,118.5c5.2,0,8.2-3.9,8-7.7c-0.1-2-0.3-3.3-0.5-4.3c-3.2-13.8-14.4-24-27.7-24
			c-15.8,0-28.6,14.3-28.6,31.9c0,17.6,12.8,31.9,28.6,31.9c9.9,0,17-3.6,22.1-9.3c2.5-2.8,2-7.1-1-9.2c-2.5-1.7-5.6-1.1-7.9,0.8
			c-2.2,1.9-6.4,5.7-13.2,5.7c-8,0-14.8-6.9-16.3-16H142.8z M122.5,94.5c7.2,0,13.4,5.6,15.7,13.3h-31.4
			C109.1,100.1,115.3,94.5,122.5,94.5z"/>
		<path class="st1" d="M94.6,88.8c0-3-2.2-5.4-5-5.9c-8.7-1.3-16.9,1.9-21.6,7.8v-0.8c0-3.7-3-6-6-6c-3.3,0-6,2.7-6,6v49
			c0,3.2,2.4,6,5.6,6.2c3.5,0.2,6.4-2.5,6.4-6v-25.3c0-11.2,8.4-20.4,20-19.1c0.4,0,0.8,0,1.2,0C92.1,94.5,94.6,91.9,94.6,88.8z"/>
		<path class="st1" d="M300.2,95.2c0-3.3-2.7-6-6-6s-6,2.7-6,6c0,0.2,0,42,0,43.9c0,3.3,2.7,6,6,6s6-2.7,6-6
			C300.2,137.2,300.2,95.4,300.2,95.2z"/>
		<path class="st1" d="M211,61.9c0-3.3-2.7-6-6-6h0c-3.3,0-6,2.7-6,6l0,26.7c-4.1-4.1-9.2-6.1-15.3-6.1c-15.8,0-28.6,14.3-28.6,31.9
			c0,17.6,12.8,31.9,28.6,31.9c6.1,0,11.3-2.1,15.4-6.2c0.5,2.8,3,4.9,5.9,4.9c3.3,0,6-2.7,6-6C211,139.1,211,61.9,211,61.9z
			 M183.7,134.5c-9.2,0-16.6-8.9-16.6-20c0-11,7.4-20,16.6-20s16.6,8.9,16.6,20C200.4,125.5,192.9,134.5,183.7,134.5z"/>
		<path class="st1" d="M273.6,61.9c0-3.3-2.7-6-6-6h0c-3.3,0-6,2.7-6,6l0,26.7c-4.1-4.1-9.2-6.1-15.3-6.1
			c-15.8,0-28.6,14.3-28.6,31.9c0,17.6,12.8,31.9,28.6,31.9c6.1,0,11.3-2.1,15.4-6.2c0.5,2.8,3,4.9,5.9,4.9c3.3,0,6-2.7,6-6
			C273.6,139.1,273.6,61.9,273.6,61.9z M246.3,134.5c-9.2,0-16.6-8.9-16.6-20c0-11,7.4-20,16.6-20s16.6,8.9,16.6,20
			C262.9,125.5,255.5,134.5,246.3,134.5z"/>
		<path class="st1" d="M330.6,139.1V94.5h5.3c2.8,0,5.3-2.1,5.5-5c0.2-3.1-2.3-5.7-5.3-5.7h-5.5v-8.4c0-3.2-2.4-6-5.6-6.2
			c-3.5-0.2-6.4,2.5-6.4,6v8.7h-5c-2.8,0-5.3,2.1-5.5,5c-0.2,3.1,2.3,5.7,5.3,5.7h5.1v44.6c0,3.3,2.7,6,6,6l0,0
			C327.9,145.1,330.6,142.4,330.6,139.1z"/>
	</g>
</g>
<g id="Spacing_Guide" class="st2">
	<rect class="st3" width="397.4" height="55.9"/>
	<rect y="146.5" class="st3" width="397.4" height="55.9"/>
	<rect x="0" class="st3" width="55.9" height="202.4"/>
	<rect x="341.4" class="st3" width="55.9" height="202.4"/>
</g>
</svg>
