<?xml version="1.0" encoding="utf-8"?>
<!-- Generator: Adobe Illustrator 21.1.0, SVG Export Plug-In . SVG Version: 6.00 Build 0)  -->
<svg version="1.1" xmlns="http://www.w3.org/2000/svg" xmlns:xlink="http://www.w3.org/1999/xlink" x="0px" y="0px"
	 viewBox="0 0 326.1 393.2" style="enable-background:new 0 0 326.1 393.2;" xml:space="preserve">
<style type="text/css">
	.st0{fill:#FF4500;}
	.st1{fill:#FFFFFF;}
	.st2{display:none;}
	.st3{display:inline;fill:none;stroke:#D7D7D7;stroke-width:0.5367;stroke-miterlimit:10;}
	.st4{display:inline;fill:none;stroke:#D7D7D7;stroke-width:0.4885;stroke-miterlimit:10;}
</style>
<g id="Artwork">
	<g id="reddit_round">
		<circle class="st0" cx="216.7" cy="271.3" r="5.9"/>
		<path class="st1" d="M133.4,296.2c2.9,0,4.5-2.1,4.4-4.2c-0.1-1.1-0.2-1.8-0.3-2.4c-1.7-7.6-7.9-13.2-15.3-13.2
			c-8.7,0-15.7,7.9-15.7,17.6c0,9.7,7.1,17.6,15.7,17.6c5.4,0,9.3-2,12.2-5.1c1.4-1.5,1.1-3.9-0.6-5.1c-1.4-1-3.1-0.6-4.4,0.4
			c-1.2,1-3.5,3.1-7.2,3.1c-4.4,0-8.1-3.8-9-8.8H133.4z M122.2,283c4,0,7.4,3.1,8.6,7.3h-17.3C114.8,286.1,118.2,283,122.2,283z"/>
		<path class="st1" d="M106.8,279.8c0-1.6-1.2-3-2.8-3.2c-4.8-0.7-9.3,1.1-11.9,4.3v-0.4c0-2-1.6-3.3-3.3-3.3
			c-1.8,0-3.3,1.5-3.3,3.3v27c0,1.8,1.3,3.3,3.1,3.4c1.9,0.1,3.5-1.4,3.5-3.3v-13.9c0-6.2,4.6-11.2,11-10.5c0.2,0,0.4,0,0.7,0
			C105.5,283,106.8,281.6,106.8,279.8z"/>
		<path class="st1" d="M220,283.4c0-1.8-1.5-3.3-3.3-3.3c-1.8,0-3.3,1.5-3.3,3.3c0,0.1,0,23.1,0,24.2c0,1.8,1.5,3.3,3.3,3.3
			c1.8,0,3.3-1.5,3.3-3.3C220,306.5,220,283.5,220,283.4z"/>
		<path class="st1" d="M170.9,265.1c0-1.8-1.5-3.3-3.3-3.3h0c-1.8,0-3.3,1.5-3.3,3.3l0,14.7c-2.2-2.2-5.1-3.4-8.4-3.4
			c-8.7,0-15.7,7.9-15.7,17.6s7.1,17.6,15.7,17.6c3.4,0,6.2-1.2,8.5-3.4c0.3,1.5,1.6,2.7,3.2,2.7c1.8,0,3.3-1.5,3.3-3.3
			C170.9,307.5,170.9,265.1,170.9,265.1z M155.9,305c-5.1,0-9.2-4.9-9.2-11s4.1-11,9.2-11s9.2,4.9,9.2,11S161,305,155.9,305z"/>
		<path class="st1" d="M205.3,265.1c0-1.8-1.5-3.3-3.3-3.3h0c-1.8,0-3.3,1.5-3.3,3.3l0,14.7c-2.2-2.2-5.1-3.4-8.4-3.4
			c-8.7,0-15.7,7.9-15.7,17.6s7.1,17.6,15.7,17.6c3.4,0,6.2-1.2,8.5-3.4c0.3,1.5,1.6,2.7,3.2,2.7c1.8,0,3.3-1.5,3.3-3.3
			C205.3,307.5,205.3,265.1,205.3,265.1z M190.3,305c-5.1,0-9.2-4.9-9.2-11s4.1-11,9.2-11c5.1,0,9.2,4.9,9.2,11S195.4,305,190.3,305
			z"/>
		<path class="st1" d="M236.7,307.6V283h2.9c1.6,0,2.9-1.2,3-2.7c0.1-1.7-1.2-3.1-2.9-3.1h-3v-4.6c0-1.8-1.3-3.3-3.1-3.4
			c-1.9-0.1-3.5,1.4-3.5,3.3v4.8h-2.7c-1.6,0-2.9,1.2-3,2.7c-0.1,1.7,1.2,3.1,2.9,3.1h2.8v24.5c0,1.8,1.5,3.3,3.3,3.3h0
			C235.3,310.9,236.7,309.4,236.7,307.6z"/>
	</g>
	<g id="icon_2">
		<circle class="st0" cx="163" cy="163.1" r="81.5"/>
		<path class="st1" d="M217.4,163.1c0-6.6-5.3-11.9-11.9-11.9c-3.2,0-6.1,1.3-8.2,3.3c-8.1-5.9-19.3-9.7-31.8-10.1l5.4-25.5
			l17.7,3.8c0.2,4.5,3.9,8.1,8.5,8.1c4.7,0,8.5-3.8,8.5-8.5c0-4.7-3.8-8.5-8.5-8.5c-3.3,0-6.2,1.9-7.6,4.7l-19.8-4.2
			c-0.5-0.1-1.1,0-1.6,0.3c-0.5,0.3-0.8,0.8-0.9,1.3l-6,28.4c-12.7,0.4-24,4.1-32.3,10.1c-2.1-2-5-3.3-8.2-3.3
			c-6.6,0-11.9,5.3-11.9,11.9c0,4.8,2.9,9,7,10.8c-0.2,1.2-0.3,2.4-0.3,3.6c0,18.3,21.3,33.1,47.6,33.1s47.6-14.8,47.6-33.1
			c0-1.2-0.1-2.4-0.3-3.6C214.5,172.1,217.4,168,217.4,163.1z M135.9,171.6c0-4.7,3.8-8.5,8.5-8.5c4.7,0,8.5,3.8,8.5,8.5
			c0,4.7-3.8,8.5-8.5,8.5C139.7,180.1,135.9,176.3,135.9,171.6z M183.2,194c-5.8,5.8-16.9,6.2-20.2,6.2c-3.3,0-14.4-0.4-20.2-6.2
			c-0.9-0.9-0.9-2.3,0-3.1c0.9-0.9,2.3-0.9,3.1,0c3.7,3.7,11.5,4.9,17,4.9s13.4-1.3,17.1-5c0.9-0.9,2.3-0.9,3.1,0
			C184.1,191.8,184.1,193.2,183.2,194z M181.7,180.1c-4.7,0-8.5-3.8-8.5-8.5c0-4.7,3.8-8.5,8.5-8.5s8.5,3.8,8.5,8.5
			C190.2,176.3,186.4,180.1,181.7,180.1z"/>
	</g>
</g>
<g id="Spacing_Guide" class="st2">
	<rect class="st3" width="81.6" height="393.2"/>
	
		<rect x="122.4" y="-122.1" transform="matrix(6.123234e-17 -1 1 6.123234e-17 122.3763 203.9791)" class="st4" width="81.6" height="325.8"/>
	
		<rect x="122.4" y="189.5" transform="matrix(6.123234e-17 -1 1 6.123234e-17 -189.2124 515.5678)" class="st4" width="81.6" height="325.8"/>
	<rect x="244.5" class="st3" width="81.6" height="393.2"/>
</g>
</svg>
