<svg xmlns="http://www.w3.org/2000/svg" xmlns:xlink="http://www.w3.org/1999/xlink" width="646" height="250"><defs><radialGradient xlink:href="#a" id="b" cx="113" cy="-12.89" fx="113" fy="-12.89" r="59.662" gradientTransform="matrix(0 1.96105 -1.97781 0 254.507 78.763)" gradientUnits="userSpaceOnUse"/><linearGradient id="a"><stop style="stop-color:#fff;stop-opacity:.09803922" offset="0"/><stop style="stop-color:#fff;stop-opacity:0" offset="1"/></linearGradient></defs><g transform="translate(-289 -312.362)"><rect style="color:#000;display:inline;overflow:visible;visibility:visible;fill:#000;fill-opacity:1;fill-rule:nonzero;stroke:#a6a6a6;stroke-width:4;stroke-miterlimit:4;stroke-dasharray:none;stroke-opacity:1;marker:none;enable-background:accumulate" width="560" height="164" x="332" y="355.362" rx="20" ry="20"/><text y="402.367" x="508.951" style="color:#000;font-style:normal;font-variant:normal;font-weight:400;font-stretch:normal;font-size:12.39519119px;line-height:100%;font-family:'DejaVu Sans';-inkscape-font-specification:'DejaVu Sans';letter-spacing:0;word-spacing:0;display:inline;overflow:visible;visibility:visible;fill:#fff;fill-opacity:1;fill-rule:nonzero;stroke:none;stroke-width:1px;marker:none;enable-background:accumulate" xml:space="preserve"><tspan y="402.367" x="508.951" style="font-style:normal;font-variant:normal;font-weight:400;font-stretch:normal;font-size:34.125px;font-family:'DejaVu Sans';-inkscape-font-specification:'DejaVu Sans'">GET IT ON</tspan></text><text xml:space="preserve" style="color:#000;font-style:normal;font-variant:normal;font-weight:700;font-stretch:normal;font-size:29.70882034px;line-height:100%;font-family:Rokkitt;-inkscape-font-specification:'Rokkitt Bold';text-align:start;letter-spacing:0;word-spacing:0;writing-mode:lr-tb;text-anchor:start;display:inline;overflow:visible;visibility:visible;fill:#fff;fill-opacity:1;fill-rule:nonzero;stroke:none;stroke-width:1px;marker:none;enable-background:accumulate" x="508.213" y="489.361"><tspan x="508.213" y="489.361" style="font-style:normal;font-variant:normal;font-weight:700;font-stretch:normal;font-size:95px;line-height:100%;font-family:'Roboto Slab';-inkscape-font-specification:'Roboto Slab Bold';text-align:start;writing-mode:lr-tb;text-anchor:start;fill:#fff;fill-opacity:1">F-Droid</tspan></text><path d="m2.589 1006.862 4.25 5.5" style="fill:#8ab000;fill-opacity:1;fill-rule:evenodd;stroke:#769616;stroke-width:2.5;stroke-linecap:round;stroke-linejoin:miter;stroke-miterlimit:4;stroke-dasharray:none;stroke-opacity:1" transform="matrix(-2.63159 0 0 2.63157 483.158 -2270.475)"/><path style="color:#000;font-style:normal;font-variant:normal;font-weight:400;font-stretch:normal;font-size:medium;line-height:normal;font-family:sans-serif;text-indent:0;text-align:start;text-decoration:none;text-decoration-line:none;text-decoration-style:solid;text-decoration-color:#000;letter-spacing:normal;word-spacing:normal;text-transform:none;direction:ltr;block-progression:tb;writing-mode:lr-tb;baseline-shift:baseline;text-anchor:start;white-space:normal;clip-rule:nonzero;display:inline;overflow:visible;visibility:visible;opacity:1;isolation:auto;mix-blend-mode:normal;color-interpolation:sRGB;color-interpolation-filters:linearRGB;solid-color:#000;solid-opacity:1;fill:#fff;fill-opacity:.29803922;fill-rule:evenodd;stroke:none;stroke-width:2.5;stroke-linecap:round;stroke-linejoin:miter;stroke-miterlimit:4;stroke-dasharray:none;stroke-dashoffset:0;stroke-opacity:1;color-rendering:auto;image-rendering:auto;shape-rendering:auto;text-rendering:auto;enable-background:accumulate" d="M2.611 1005.61c-.453.011-.761.188-.98.448 2.027 2.409 2.368 2.792 5.135 6.221 1.02 1.32 2.082.638 1.062-.681l-4.25-5.5a1.239 1.239 0 0 0-.967-.489z" transform="matrix(-2.63159 0 0 2.63157 483.158 -2270.475)"/><path style="color:#000;font-style:normal;font-variant:normal;font-weight:400;font-stretch:normal;font-size:medium;line-height:normal;font-family:sans-serif;text-indent:0;text-align:start;text-decoration:none;text-decoration-line:none;text-decoration-style:solid;text-decoration-color:#000;letter-spacing:normal;word-spacing:normal;text-transform:none;direction:ltr;block-progression:tb;writing-mode:lr-tb;baseline-shift:baseline;text-anchor:start;white-space:normal;clip-rule:nonzero;display:inline;overflow:visible;visibility:visible;opacity:1;isolation:auto;mix-blend-mode:normal;color-interpolation:sRGB;color-interpolation-filters:linearRGB;solid-color:#000;solid-opacity:1;fill:#263238;fill-opacity:.2;fill-rule:evenodd;stroke:none;stroke-width:2.5;stroke-linecap:round;stroke-linejoin:miter;stroke-miterlimit:4;stroke-dasharray:none;stroke-dashoffset:0;stroke-opacity:1;color-rendering:auto;image-rendering:auto;shape-rendering:auto;text-rendering:auto;enable-background:accumulate" d="M1.622 1006.07a1.25 1.25 0 0 0-.022 1.557l4.25 5.5c1.02 1.319 1.15-.613 1.15-.613s-3.735-4.51-5.378-6.443z" transform="matrix(-2.63159 0 0 2.63157 483.158 -2270.475)"/><path style="color:#000;font-style:normal;font-variant:normal;font-weight:400;font-stretch:normal;font-size:medium;line-height:normal;font-family:sans-serif;text-indent:0;text-align:start;text-decoration:none;text-decoration-line:none;text-decoration-style:solid;text-decoration-color:#000;letter-spacing:normal;word-spacing:normal;text-transform:none;direction:ltr;block-progression:tb;writing-mode:lr-tb;baseline-shift:baseline;text-anchor:start;white-space:normal;clip-rule:nonzero;display:inline;overflow:visible;visibility:visible;opacity:1;isolation:auto;mix-blend-mode:normal;color-interpolation:sRGB;color-interpolation-filters:linearRGB;solid-color:#000;solid-opacity:1;fill:#8ab000;fill-opacity:1;fill-rule:evenodd;stroke:none;stroke-width:2.5;stroke-linecap:round;stroke-linejoin:miter;stroke-miterlimit:4;stroke-dasharray:none;stroke-dashoffset:0;stroke-opacity:1;color-rendering:auto;image-rendering:auto;shape-rendering:auto;text-rendering:auto;enable-background:accumulate" d="M2.338 1005.844c-.438 0-.96.142-.824.799.103.501 4.66 6.074 4.66 6.074 1.02 1.32 2.494.677 1.474-.642l-4.234-5.473c-.26-.29-.608-.744-1.076-.758z" transform="matrix(-2.63159 0 0 2.63157 483.158 -2270.475)"/><path style="fill:#8ab000;fill-opacity:1;fill-rule:evenodd;stroke:#769616;stroke-width:2.5;stroke-linecap:round;stroke-linejoin:miter;stroke-miterlimit:4;stroke-dasharray:none;stroke-opacity:1" d="m2.589 1006.862 4.25 5.5" transform="matrix(2.63159 0 0 2.63157 356.842 -2270.475)"/><path d="M2.611 1005.61c-.453.011-.761.188-.98.448 2.027 2.409 2.368 2.792 5.135 6.221 1.02 1.32 2.082.638 1.062-.681l-4.25-5.5a1.239 1.239 0 0 0-.967-.489z" style="color:#000;font-style:normal;font-variant:normal;font-weight:400;font-stretch:normal;font-size:medium;line-height:normal;font-family:sans-serif;text-indent:0;text-align:start;text-decoration:none;text-decoration-line:none;text-decoration-style:solid;text-decoration-color:#000;letter-spacing:normal;word-spacing:normal;text-transform:none;direction:ltr;block-progression:tb;writing-mode:lr-tb;baseline-shift:baseline;text-anchor:start;white-space:normal;clip-rule:nonzero;display:inline;overflow:visible;visibility:visible;opacity:1;isolation:auto;mix-blend-mode:normal;color-interpolation:sRGB;color-interpolation-filters:linearRGB;solid-color:#000;solid-opacity:1;fill:#fff;fill-opacity:.29803922;fill-rule:evenodd;stroke:none;stroke-width:2.5;stroke-linecap:round;stroke-linejoin:miter;stroke-miterlimit:4;stroke-dasharray:none;stroke-dashoffset:0;stroke-opacity:1;color-rendering:auto;image-rendering:auto;shape-rendering:auto;text-rendering:auto;enable-background:accumulate" transform="matrix(2.63159 0 0 2.63157 356.842 -2270.475)"/><path d="M1.622 1006.07a1.25 1.25 0 0 0-.022 1.557l4.25 5.5c1.02 1.319 1.15-.613 1.15-.613s-3.735-4.51-5.378-6.443z" style="color:#000;font-style:normal;font-variant:normal;font-weight:400;font-stretch:normal;font-size:medium;line-height:normal;font-family:sans-serif;text-indent:0;text-align:start;text-decoration:none;text-decoration-line:none;text-decoration-style:solid;text-decoration-color:#000;letter-spacing:normal;word-spacing:normal;text-transform:none;direction:ltr;block-progression:tb;writing-mode:lr-tb;baseline-shift:baseline;text-anchor:start;white-space:normal;clip-rule:nonzero;display:inline;overflow:visible;visibility:visible;opacity:1;isolation:auto;mix-blend-mode:normal;color-interpolation:sRGB;color-interpolation-filters:linearRGB;solid-color:#000;solid-opacity:1;fill:#263238;fill-opacity:.2;fill-rule:evenodd;stroke:none;stroke-width:2.5;stroke-linecap:round;stroke-linejoin:miter;stroke-miterlimit:4;stroke-dasharray:none;stroke-dashoffset:0;stroke-opacity:1;color-rendering:auto;image-rendering:auto;shape-rendering:auto;text-rendering:auto;enable-background:accumulate" transform="matrix(2.63159 0 0 2.63157 356.842 -2270.475)"/><path d="M2.338 1005.844c-.438 0-.96.142-.824.799.103.501 4.66 6.074 4.66 6.074 1.02 1.32 2.494.677 1.474-.642l-4.234-5.473c-.26-.29-.608-.744-1.076-.758z" style="color:#000;font-style:normal;font-variant:normal;font-weight:400;font-stretch:normal;font-size:medium;line-height:normal;font-family:sans-serif;text-indent:0;text-align:start;text-decoration:none;text-decoration-line:none;text-decoration-style:solid;text-decoration-color:#000;letter-spacing:normal;word-spacing:normal;text-transform:none;direction:ltr;block-progression:tb;writing-mode:lr-tb;baseline-shift:baseline;text-anchor:start;white-space:normal;clip-rule:nonzero;display:inline;overflow:visible;visibility:visible;opacity:1;isolation:auto;mix-blend-mode:normal;color-interpolation:sRGB;color-interpolation-filters:linearRGB;solid-color:#000;solid-opacity:1;fill:#8ab000;fill-opacity:1;fill-rule:evenodd;stroke:none;stroke-width:2.5;stroke-linecap:round;stroke-linejoin:miter;stroke-miterlimit:4;stroke-dasharray:none;stroke-dashoffset:0;stroke-opacity:1;color-rendering:auto;image-rendering:auto;shape-rendering:auto;text-rendering:auto;enable-background:accumulate" transform="matrix(2.63159 0 0 2.63157 356.842 -2270.475)"/><g transform="matrix(2.63159 0 0 2.63157 467.369 -2270.475)"><rect ry="3" rx="3" y="1010.36" x="-37" height="12.92" width="38" style="opacity:1;fill:#aeea00;fill-opacity:1;stroke:none;stroke-width:3;stroke-linecap:round;stroke-linejoin:miter;stroke-miterlimit:3;stroke-dasharray:none;stroke-dashoffset:0;stroke-opacity:1"/><rect style="opacity:1;fill:#263238;fill-opacity:.2;stroke:none;stroke-width:3;stroke-linecap:round;stroke-linejoin:miter;stroke-miterlimit:3;stroke-dasharray:none;stroke-dashoffset:0;stroke-opacity:1" width="38" height="10" x="-37" y="1013.279" rx="3" ry="3"/><rect style="opacity:1;fill:#fff;fill-opacity:.29803922;stroke:none;stroke-width:3;stroke-linecap:round;stroke-linejoin:miter;stroke-miterlimit:3;stroke-dasharray:none;stroke-dashoffset:0;stroke-opacity:1" width="38" height="10" x="-37" y="1010.362" rx="3" ry="3"/><rect style="opacity:1;fill:#aeea00;fill-opacity:1;stroke:none;stroke-width:3;stroke-linecap:round;stroke-linejoin:miter;stroke-miterlimit:3;stroke-dasharray:none;stroke-dashoffset:0;stroke-opacity:1" width="38" height="10.641" x="-37" y="1011.5" rx="3" ry="2.456"/></g><g transform="matrix(2.63159 0 0 2.63157 356.842 -2270.745)"><rect ry="3" rx="3" y="1024.522" x="5" height="25.84" width="38" style="opacity:1;fill:#1976d2;fill-opacity:1;stroke:none;stroke-width:3;stroke-linecap:round;stroke-linejoin:miter;stroke-miterlimit:3;stroke-dasharray:none;stroke-dashoffset:0;stroke-opacity:1"/><rect style="opacity:1;fill:#263238;fill-opacity:.2;stroke:none;stroke-width:3;stroke-linecap:round;stroke-linejoin:miter;stroke-miterlimit:3;stroke-dasharray:none;stroke-dashoffset:0;stroke-opacity:1" width="38" height="13" x="5" y="1037.362" rx="3" ry="3"/><rect style="opacity:1;fill:#fff;fill-opacity:.2;stroke:none;stroke-width:3;stroke-linecap:round;stroke-linejoin:miter;stroke-miterlimit:3;stroke-dasharray:none;stroke-dashoffset:0;stroke-opacity:1" width="38" height="13" x="5" y="1024.442" rx="3" ry="3"/><rect style="opacity:1;fill:#1976d2;fill-opacity:1;stroke:none;stroke-width:3;stroke-linecap:round;stroke-linejoin:miter;stroke-miterlimit:3;stroke-dasharray:none;stroke-dashoffset:0;stroke-opacity:1" width="38" height="23.56" x="5" y="1025.662" rx="3" ry="2.718"/></g><g transform="matrix(2.63159 0 0 2.63157 356.842 396.264)"><path d="M24 17.75c-2.88 0-5.32 1.985-6.033 4.65h3.213A3.215 3.215 0 0 1 24 20.75 3.228 3.228 0 0 1 27.25 24 3.228 3.228 0 0 1 24 27.25a3.219 3.219 0 0 1-2.93-1.85h-3.154c.642 2.766 3.132 4.85 6.084 4.85 3.434 0 6.25-2.816 6.25-6.25s-2.816-6.25-6.25-6.25z" style="color:#000;font-style:normal;font-variant:normal;font-weight:400;font-stretch:normal;font-size:medium;line-height:normal;font-family:sans-serif;text-indent:0;text-align:start;text-decoration:none;text-decoration-line:none;text-decoration-style:solid;text-decoration-color:#000;letter-spacing:normal;word-spacing:normal;text-transform:none;direction:ltr;block-progression:tb;writing-mode:lr-tb;baseline-shift:baseline;text-anchor:start;white-space:normal;clip-rule:nonzero;display:inline;overflow:visible;visibility:visible;opacity:1;isolation:auto;mix-blend-mode:normal;color-interpolation:sRGB;color-interpolation-filters:linearRGB;solid-color:#000;solid-opacity:1;fill:#0d47a1;fill-opacity:1;fill-rule:nonzero;stroke:none;stroke-width:3;stroke-linecap:round;stroke-linejoin:miter;stroke-miterlimit:4;stroke-dasharray:none;stroke-dashoffset:0;stroke-opacity:1;color-rendering:auto;image-rendering:auto;shape-rendering:auto;text-rendering:auto;enable-background:accumulate"/><circle r="9.55" cy="24" cx="24" style="opacity:1;fill:none;fill-opacity:.40392157;stroke:#0d47a1;stroke-width:1.89999998;stroke-linecap:round;stroke-linejoin:miter;stroke-miterlimit:4;stroke-dasharray:none;stroke-dashoffset:0;stroke-opacity:1"/></g><g transform="matrix(2.63159 0 0 2.63157 356.842 -2269.159)"><ellipse ry="3.875" rx="3.375" style="opacity:1;fill:#263238;fill-opacity:.2;stroke:none;stroke-width:1.89999998;stroke-linecap:round;stroke-linejoin:miter;stroke-miterlimit:4;stroke-dasharray:none;stroke-dashoffset:0;stroke-opacity:.69721117" cx="14.375" cy="1016.487"/><circle r="3.375" cy="1016.987" cx="14.375" style="opacity:1;fill:#fff;fill-opacity:1;stroke:none;stroke-width:1.89999998;stroke-linecap:round;stroke-linejoin:miter;stroke-miterlimit:4;stroke-dasharray:none;stroke-dashoffset:0;stroke-opacity:.69721117"/></g><g transform="matrix(2.63159 0 0 2.63157 408.158 -2269.159)"><ellipse cy="1016.487" cx="14.375" style="opacity:1;fill:#263238;fill-opacity:.2;stroke:none;stroke-width:1.89999998;stroke-linecap:round;stroke-linejoin:miter;stroke-miterlimit:4;stroke-dasharray:none;stroke-dashoffset:0;stroke-opacity:.69721117" rx="3.375" ry="3.875"/><circle style="opacity:1;fill:#fff;fill-opacity:1;stroke:none;stroke-width:1.89999998;stroke-linecap:round;stroke-linejoin:miter;stroke-miterlimit:4;stroke-dasharray:none;stroke-dashoffset:0;stroke-opacity:.69721117" cx="14.375" cy="1016.987" r="3.375"/></g><path d="M282.715 299.835a3.29 3.29 0 0 0-2.662 5.336l9.474 12.261a7.894 7.894 0 0 0-.527 2.825v18.21a7.877 7.877 0 0 0 7.895 7.895h84.21a7.877 7.877 0 0 0 7.895-7.894v-18.211c0-.999-.19-1.949-.525-2.826l9.472-12.26a3.29 3.29 0 0 0-2.433-5.334 3.29 3.29 0 0 0-2.772 1.31l-9.013 11.666a7.91 7.91 0 0 0-2.624-.45h-84.21c-.922 0-1.8.163-2.622.45l-9.015-11.666a3.29 3.29 0 0 0-2.543-1.312zm14.18 49.527a7.877 7.877 0 0 0-7.895 7.895v52.21a7.877 7.877 0 0 0 7.895 7.895h84.21a7.877 7.877 0 0 0 7.895-7.894v-52.211a7.877 7.877 0 0 0-7.895-7.895h-84.21z" style="color:#000;font-style:normal;font-variant:normal;font-weight:400;font-stretch:normal;font-size:medium;line-height:normal;font-family:sans-serif;text-indent:0;text-align:start;text-decoration:none;text-decoration-line:none;text-decoration-style:solid;text-decoration-color:#000;letter-spacing:normal;word-spacing:normal;text-transform:none;direction:ltr;block-progression:tb;writing-mode:lr-tb;baseline-shift:baseline;text-anchor:start;white-space:normal;clip-rule:nonzero;display:inline;overflow:visible;visibility:visible;opacity:1;isolation:auto;mix-blend-mode:normal;color-interpolation:sRGB;color-interpolation-filters:linearRGB;solid-color:#000;solid-opacity:1;fill:url(#b);fill-opacity:1;fill-rule:evenodd;stroke:none;stroke-width:6.57895327;stroke-linecap:round;stroke-linejoin:miter;stroke-miterlimit:4;stroke-dasharray:none;stroke-dashoffset:0;stroke-opacity:1;color-rendering:auto;image-rendering:auto;shape-rendering:auto;text-rendering:auto;enable-background:accumulate" transform="translate(81 76)"/></g></svg>