<svg width="128" height="128" viewBox="0 0 128 128" fill="none" xmlns="http://www.w3.org/2000/svg">
    <path d="M0 16C0 7.16344 7.16344 0 16 0H112C120.837 0 128 7.16344 128 16V112C128 120.837 120.837 128 112 128H16C7.16344 128 0 120.837 0 112V16Z"
          fill="url(#paint0_linear_957_34)"/>
    <path
        d="M85.176 27.84C87.608 27.84 89.592 28.64 91.128 30.24C92.728 31.84 93.528 33.92 93.528 36.48V87.84C93.528 90.464 92.76 92.576 91.224 94.176C89.688 95.776 87.704 96.576 85.272 96.576C82.392 96.576 80.216 95.616 78.744 93.696L49.56 57.312V87.84C49.56 90.464 48.824 92.576 47.352 94.176C45.88 95.776 43.896 96.576 41.4 96.576C38.968 96.576 36.984 95.776 35.448 94.176C33.912 92.576 33.144 90.464 33.144 87.84V36.48C33.144 33.92 33.912 31.84 35.448 30.24C36.984 28.64 38.968 27.84 41.4 27.84C44.152 27.84 46.296 28.8 47.832 30.72L77.016 67.008V36.48C77.016 33.856 77.752 31.776 79.224 30.24C80.76 28.64 82.744 27.84 85.176 27.84Z"
        fill="white"/>
    <defs>
        <linearGradient id="paint0_linear_957_34" x1="50.3441" y1="187.826" x2="185.619" y2="78.5293" gradientUnits="userSpaceOnUse">
            <stop stop-color="#9358F7"/>
            <stop offset="0.259732" stop-color="#7B78F2"/>
            <stop offset="0.500607" stop-color="#6197EE"/>
            <stop offset="0.766547" stop-color="#45B5E9"/>
            <stop offset="1" stop-color="#10D7E2"/>
        </linearGradient>
    </defs>
</svg>
