<svg width="128" height="128" viewBox="0 0 128 128" fill="none" xmlns="http://www.w3.org/2000/svg">
    <path d="M0 16C0 7.16344 7.16344 0 16 0H112C120.837 0 128 7.16344 128 16V112C128 120.837 120.837 128 112 128H16C7.16344 128 0 120.837 0 112V16Z"
        fill="url(#paint0_linear_2015_45)" />
    <path
        d="M42.072 96.96C38.936 96.96 36.536 96.128 34.872 94.464C33.272 92.8 32.472 90.4 32.472 87.264V37.536C32.472 34.272 33.272 31.776 34.872 30.048C36.536 28.256 38.744 27.36 41.496 27.36C43.8 27.36 45.624 27.84 46.968 28.8C48.376 29.696 49.912 31.168 51.576 33.216L78.456 65.76H75.576V37.056C75.576 33.92 76.376 31.52 77.976 29.856C79.64 28.192 82.04 27.36 85.176 27.36C88.312 27.36 90.68 28.192 92.28 29.856C93.944 31.52 94.776 33.92 94.776 37.056V87.744C94.776 90.496 94.008 92.736 92.472 94.464C91 96.128 88.984 96.96 86.424 96.96C83.864 96.96 81.848 96.512 80.376 95.616C78.904 94.656 77.336 93.152 75.672 91.104L48.792 58.56H51.672V87.264C51.672 90.4 50.84 92.8 49.176 94.464C47.576 96.128 45.208 96.96 42.072 96.96Z"
        fill="white" />
    <defs>
        <linearGradient id="paint0_linear_2015_45" x1="192" y1="64" x2="64" y2="-64" gradientUnits="userSpaceOnUse">
            <stop stop-color="#21BDB8" />
            <stop offset="1" stop-color="#280684" />
            <stop offset="1" stop-color="#280684" />
        </linearGradient>
    </defs>
</svg>