<svg width="2000" height="500" viewBox="0 0 2000 500" fill="none" xmlns="http://www.w3.org/2000/svg">
<rect width="2000" height="500" rx="64" fill="#2BACEF"/>
<g clip-path="url(#clip0_2466_95)">
<path d="M256 122C222.06 122 189.48 135.494 165.5 159.49C141.495 183.496 128.007 216.052 128 250C128 283.934 141.5 316.514 165.5 340.51C189.48 364.506 222.06 378 256 378C289.94 378 322.52 364.506 346.5 340.51C370.5 316.514 384 283.934 384 250C384 216.066 370.5 183.486 346.5 159.49C322.52 135.494 289.94 122 256 122Z" fill="url(#paint0_linear_2466_95)"/>
<path d="M185.941 248.648C223.261 232.392 248.141 221.674 260.581 216.496C296.141 201.71 303.521 199.142 308.341 199.055C309.401 199.038 311.761 199.3 313.301 200.545C314.581 201.595 314.941 203.015 315.121 204.012C315.281 205.008 315.501 207.278 315.321 209.05C313.401 229.29 305.061 278.406 300.821 301.076C299.041 310.668 295.501 313.884 292.081 314.198C284.641 314.882 279.001 309.286 271.801 304.568C260.541 297.182 254.181 292.586 243.241 285.38C230.601 277.052 238.801 272.474 246.001 264.994C247.881 263.036 280.641 233.246 281.261 230.544C281.341 230.206 281.421 228.946 280.661 228.282C279.921 227.616 278.821 227.844 278.021 228.024C276.881 228.28 258.901 240.176 224.021 263.71C218.921 267.218 214.301 268.928 210.141 268.838C205.581 268.74 196.781 266.254 190.241 264.13C182.241 261.524 175.861 260.146 176.421 255.72C176.701 253.416 179.881 251.058 185.941 248.648Z" fill="#2BACEF"/>
</g>
<path d="M518.528 282.268C515.968 282.396 513.984 281.756 512.576 280.348C511.232 278.876 510.56 277.02 510.56 274.78C510.56 273.052 511.04 271.548 512 270.268C512.96 268.988 514.4 268.284 516.32 268.156L519.008 267.964C521.312 267.836 523.008 267.292 524.096 266.332C525.184 265.308 525.728 263.644 525.728 261.34V221.884C525.728 218.94 526.496 216.732 528.032 215.26C529.568 213.724 531.744 212.956 534.56 212.956C537.376 212.956 539.552 213.724 541.088 215.26C542.624 216.732 543.392 218.94 543.392 221.884V261.052C543.392 265.468 542.592 269.212 540.992 272.284C539.392 275.292 536.992 277.628 533.792 279.292C530.656 280.892 526.72 281.82 521.984 282.076L518.528 282.268ZM578.302 282.556C573.054 282.556 568.478 281.564 564.574 279.58C560.67 277.596 557.63 274.748 555.454 271.036C553.278 267.324 552.19 262.94 552.19 257.884C552.19 254.044 552.798 250.62 554.014 247.612C555.23 244.54 556.99 241.948 559.294 239.836C561.598 237.66 564.35 236.028 567.55 234.94C570.75 233.788 574.334 233.212 578.302 233.212C583.55 233.212 588.126 234.204 592.03 236.188C595.934 238.172 598.942 241.02 601.054 244.732C603.23 248.38 604.318 252.764 604.318 257.884C604.318 261.66 603.71 265.084 602.494 268.156C601.278 271.228 599.518 273.852 597.214 276.028C594.974 278.14 592.222 279.772 588.958 280.924C585.758 282.012 582.206 282.556 578.302 282.556ZM578.302 269.98C580.03 269.98 581.566 269.564 582.91 268.732C584.254 267.836 585.278 266.524 585.982 264.796C586.75 263.004 587.134 260.7 587.134 257.884C587.134 253.596 586.302 250.524 584.638 248.668C582.974 246.748 580.862 245.788 578.302 245.788C576.574 245.788 575.038 246.204 573.694 247.036C572.35 247.868 571.294 249.18 570.526 250.972C569.758 252.7 569.374 255.004 569.374 257.884C569.374 262.108 570.206 265.18 571.87 267.1C573.534 269.02 575.678 269.98 578.302 269.98ZM620.596 282.364C617.908 282.364 615.828 281.564 614.356 279.964C612.884 278.364 612.148 276.06 612.148 273.052V242.716C612.148 239.708 612.884 237.404 614.356 235.804C615.828 234.204 617.908 233.404 620.596 233.404C623.348 233.404 625.46 234.204 626.932 235.804C628.468 237.404 629.236 239.708 629.236 242.716V273.052C629.236 276.06 628.5 278.364 627.028 279.964C625.556 281.564 623.412 282.364 620.596 282.364ZM620.596 226.588C617.588 226.588 615.252 225.884 613.588 224.476C611.988 223.068 611.188 221.02 611.188 218.332C611.188 215.708 611.988 213.692 613.588 212.284C615.252 210.876 617.588 210.172 620.596 210.172C623.732 210.172 626.1 210.876 627.7 212.284C629.3 213.692 630.1 215.708 630.1 218.332C630.1 221.02 629.3 223.068 627.7 224.476C626.1 225.884 623.732 226.588 620.596 226.588ZM647.596 282.364C644.908 282.364 642.828 281.628 641.356 280.156C639.884 278.684 639.148 276.54 639.148 273.724V241.948C639.148 239.196 639.852 237.084 641.26 235.612C642.732 234.14 644.812 233.404 647.5 233.404C650.188 233.404 652.236 234.14 653.644 235.612C655.052 237.084 655.756 239.196 655.756 241.948V246.46L654.7 242.524C656.236 239.516 658.412 237.212 661.228 235.612C664.108 234.012 667.372 233.212 671.02 233.212C674.796 233.212 677.9 233.948 680.332 235.42C682.764 236.828 684.588 239.068 685.804 242.14C687.02 245.148 687.628 248.956 687.628 253.564V273.724C687.628 276.54 686.892 278.684 685.42 280.156C683.948 281.628 681.836 282.364 679.084 282.364C676.332 282.364 674.22 281.628 672.748 280.156C671.276 278.684 670.54 276.54 670.54 273.724V254.236C670.54 251.356 670.028 249.308 669.004 248.092C668.044 246.876 666.604 246.268 664.684 246.268C662.124 246.268 660.076 247.1 658.54 248.764C657.004 250.364 656.236 252.54 656.236 255.292V273.724C656.236 279.484 653.356 282.364 647.596 282.364ZM750.756 282.364C747.94 282.364 745.764 281.596 744.228 280.06C742.692 278.46 741.924 276.252 741.924 273.436V228.22H726.852C724.484 228.22 722.66 227.612 721.38 226.396C720.164 225.116 719.556 223.324 719.556 221.02C719.556 218.652 720.164 216.86 721.38 215.644C722.66 214.428 724.484 213.82 726.852 213.82H774.66C777.028 213.82 778.82 214.428 780.036 215.644C781.316 216.86 781.956 218.652 781.956 221.02C781.956 223.324 781.316 225.116 780.036 226.396C778.82 227.612 777.028 228.22 774.66 228.22H759.588V273.436C759.588 276.252 758.852 278.46 757.38 280.06C755.908 281.596 753.7 282.364 750.756 282.364ZM800.034 282.364C797.346 282.364 795.266 281.628 793.794 280.156C792.322 278.684 791.586 276.54 791.586 273.724V221.596C791.586 218.78 792.322 216.636 793.794 215.164C795.266 213.692 797.346 212.956 800.034 212.956C802.786 212.956 804.898 213.692 806.37 215.164C807.906 216.636 808.674 218.78 808.674 221.596V242.524H807.138C808.674 239.516 810.85 237.212 813.666 235.612C816.546 234.012 819.81 233.212 823.458 233.212C827.234 233.212 830.338 233.948 832.77 235.42C835.202 236.828 837.026 239.068 838.242 242.14C839.458 245.148 840.066 248.956 840.066 253.564V273.724C840.066 276.54 839.33 278.684 837.858 280.156C836.386 281.628 834.274 282.364 831.522 282.364C828.77 282.364 826.658 281.628 825.186 280.156C823.714 278.684 822.978 276.54 822.978 273.724V254.236C822.978 251.356 822.466 249.308 821.442 248.092C820.482 246.876 819.042 246.268 817.122 246.268C814.562 246.268 812.514 247.1 810.978 248.764C809.442 250.364 808.674 252.54 808.674 255.292V273.724C808.674 279.484 805.794 282.364 800.034 282.364ZM875.533 282.556C869.773 282.556 864.781 281.564 860.557 279.58C856.397 277.532 853.197 274.652 850.957 270.94C848.717 267.228 847.597 262.844 847.597 257.788C847.597 252.924 848.653 248.668 850.765 245.02C852.941 241.308 855.885 238.428 859.597 236.38C863.373 234.268 867.661 233.212 872.461 233.212C875.981 233.212 879.181 233.788 882.061 234.94C884.941 236.028 887.405 237.66 889.453 239.836C891.501 241.948 893.037 244.508 894.061 247.516C895.149 250.524 895.693 253.884 895.693 257.596C895.693 258.876 895.341 259.836 894.637 260.476C893.933 261.052 892.813 261.34 891.277 261.34H861.901V253.276H883.213L881.677 254.524C881.677 252.156 881.357 250.236 880.717 248.764C880.077 247.292 879.117 246.172 877.837 245.404C876.621 244.636 875.085 244.252 873.229 244.252C871.245 244.252 869.517 244.732 868.045 245.692C866.637 246.588 865.549 247.932 864.781 249.724C864.013 251.516 863.629 253.756 863.629 256.444V257.308C863.629 261.852 864.621 265.116 866.605 267.1C868.653 269.02 871.789 269.98 876.013 269.98C877.421 269.98 879.021 269.82 880.813 269.5C882.669 269.116 884.429 268.604 886.093 267.964C887.757 267.324 889.197 267.228 890.413 267.676C891.629 268.06 892.557 268.764 893.197 269.788C893.901 270.748 894.285 271.868 894.349 273.148C894.413 274.364 894.125 275.58 893.485 276.796C892.845 277.948 891.789 278.844 890.317 279.484C888.077 280.508 885.677 281.276 883.117 281.788C880.621 282.3 878.093 282.556 875.533 282.556ZM956.443 282.364C953.627 282.364 951.451 281.596 949.915 280.06C948.379 278.46 947.611 276.252 947.611 273.436V228.22H932.539C930.171 228.22 928.347 227.612 927.067 226.396C925.851 225.116 925.243 223.324 925.243 221.02C925.243 218.652 925.851 216.86 927.067 215.644C928.347 214.428 930.171 213.82 932.539 213.82H980.347C982.715 213.82 984.507 214.428 985.723 215.644C987.003 216.86 987.643 218.652 987.643 221.02C987.643 223.324 987.003 225.116 985.723 226.396C984.507 227.612 982.715 228.22 980.347 228.22H965.275V273.436C965.275 276.252 964.539 278.46 963.067 280.06C961.595 281.596 959.387 282.364 956.443 282.364ZM1010.44 282.556C1004.68 282.556 999.687 281.564 995.463 279.58C991.303 277.532 988.103 274.652 985.863 270.94C983.623 267.228 982.503 262.844 982.503 257.788C982.503 252.924 983.559 248.668 985.671 245.02C987.847 241.308 990.791 238.428 994.503 236.38C998.279 234.268 1002.57 233.212 1007.37 233.212C1010.89 233.212 1014.09 233.788 1016.97 234.94C1019.85 236.028 1022.31 237.66 1024.36 239.836C1026.41 241.948 1027.94 244.508 1028.97 247.516C1030.05 250.524 1030.6 253.884 1030.6 257.596C1030.6 258.876 1030.25 259.836 1029.54 260.476C1028.84 261.052 1027.72 261.34 1026.18 261.34H996.807V253.276H1018.12L1016.58 254.524C1016.58 252.156 1016.26 250.236 1015.62 248.764C1014.98 247.292 1014.02 246.172 1012.74 245.404C1011.53 244.636 1009.99 244.252 1008.13 244.252C1006.15 244.252 1004.42 244.732 1002.95 245.692C1001.54 246.588 1000.45 247.932 999.687 249.724C998.919 251.516 998.535 253.756 998.535 256.444V257.308C998.535 261.852 999.527 265.116 1001.51 267.1C1003.56 269.02 1006.69 269.98 1010.92 269.98C1012.33 269.98 1013.93 269.82 1015.72 269.5C1017.57 269.116 1019.33 268.604 1021 267.964C1022.66 267.324 1024.1 267.228 1025.32 267.676C1026.53 268.06 1027.46 268.764 1028.1 269.788C1028.81 270.748 1029.19 271.868 1029.25 273.148C1029.32 274.364 1029.03 275.58 1028.39 276.796C1027.75 277.948 1026.69 278.844 1025.22 279.484C1022.98 280.508 1020.58 281.276 1018.02 281.788C1015.53 282.3 1013 282.556 1010.44 282.556ZM1055.91 282.556C1049.77 282.556 1045.22 280.924 1042.28 277.66C1039.4 274.332 1037.96 269.34 1037.96 262.684V221.596C1037.96 218.78 1038.7 216.636 1040.17 215.164C1041.64 213.692 1043.72 212.956 1046.41 212.956C1049.16 212.956 1051.27 213.692 1052.74 215.164C1054.28 216.636 1055.05 218.78 1055.05 221.596V262.108C1055.05 264.476 1055.5 266.204 1056.39 267.292C1057.35 268.38 1058.57 268.924 1060.04 268.924C1060.49 268.924 1060.94 268.892 1061.38 268.828C1061.9 268.7 1062.44 268.604 1063.02 268.54C1064.1 268.54 1064.9 268.956 1065.42 269.788C1065.99 270.62 1066.28 272.316 1066.28 274.876C1066.28 277.116 1065.83 278.812 1064.94 279.964C1064.04 281.052 1062.66 281.756 1060.81 282.076C1060.3 282.14 1059.56 282.236 1058.6 282.364C1057.64 282.492 1056.74 282.556 1055.91 282.556ZM1096.6 282.556C1090.84 282.556 1085.84 281.564 1081.62 279.58C1077.46 277.532 1074.26 274.652 1072.02 270.94C1069.78 267.228 1068.66 262.844 1068.66 257.788C1068.66 252.924 1069.72 248.668 1071.83 245.02C1074 241.308 1076.95 238.428 1080.66 236.38C1084.44 234.268 1088.72 233.212 1093.52 233.212C1097.04 233.212 1100.24 233.788 1103.12 234.94C1106 236.028 1108.47 237.66 1110.52 239.836C1112.56 241.948 1114.1 244.508 1115.12 247.516C1116.21 250.524 1116.76 253.884 1116.76 257.596C1116.76 258.876 1116.4 259.836 1115.7 260.476C1115 261.052 1113.88 261.34 1112.34 261.34H1082.96V253.276H1104.28L1102.74 254.524C1102.74 252.156 1102.42 250.236 1101.78 248.764C1101.14 247.292 1100.18 246.172 1098.9 245.404C1097.68 244.636 1096.15 244.252 1094.29 244.252C1092.31 244.252 1090.58 244.732 1089.11 245.692C1087.7 246.588 1086.61 247.932 1085.84 249.724C1085.08 251.516 1084.69 253.756 1084.69 256.444V257.308C1084.69 261.852 1085.68 265.116 1087.67 267.1C1089.72 269.02 1092.85 269.98 1097.08 269.98C1098.48 269.98 1100.08 269.82 1101.88 269.5C1103.73 269.116 1105.49 268.604 1107.16 267.964C1108.82 267.324 1110.26 267.228 1111.48 267.676C1112.69 268.06 1113.62 268.764 1114.26 269.788C1114.96 270.748 1115.35 271.868 1115.41 273.148C1115.48 274.364 1115.19 275.58 1114.55 276.796C1113.91 277.948 1112.85 278.844 1111.38 279.484C1109.14 280.508 1106.74 281.276 1104.18 281.788C1101.68 282.3 1099.16 282.556 1096.6 282.556ZM1147.54 299.836C1144.02 299.836 1140.73 299.58 1137.65 299.068C1134.58 298.62 1131.93 297.948 1129.69 297.052C1127.83 296.412 1126.52 295.484 1125.75 294.268C1124.98 293.052 1124.63 291.772 1124.69 290.428C1124.76 289.084 1125.11 287.868 1125.75 286.78C1126.45 285.692 1127.38 284.892 1128.53 284.38C1129.69 283.932 1130.97 283.964 1132.37 284.476C1135.19 285.628 1137.75 286.364 1140.05 286.684C1142.36 287.068 1144.31 287.26 1145.91 287.26C1149.81 287.26 1152.73 286.428 1154.65 284.764C1156.63 283.164 1157.62 280.636 1157.62 277.18V271.132H1158.39C1157.43 273.82 1155.48 276.028 1152.53 277.756C1149.59 279.42 1146.39 280.252 1142.93 280.252C1138.71 280.252 1135.03 279.292 1131.89 277.372C1128.76 275.388 1126.29 272.636 1124.5 269.116C1122.77 265.596 1121.91 261.468 1121.91 256.732C1121.91 253.148 1122.42 249.916 1123.45 247.036C1124.47 244.156 1125.88 241.692 1127.67 239.644C1129.53 237.596 1131.73 236.028 1134.29 234.94C1136.92 233.788 1139.8 233.212 1142.93 233.212C1146.52 233.212 1149.72 234.044 1152.53 235.708C1155.41 237.372 1157.33 239.548 1158.29 242.236L1157.33 246.172V241.948C1157.33 239.196 1158.07 237.084 1159.54 235.612C1161.08 234.14 1163.19 233.404 1165.88 233.404C1168.57 233.404 1170.61 234.14 1172.02 235.612C1173.49 237.084 1174.23 239.196 1174.23 241.948V275.164C1174.23 283.356 1171.93 289.5 1167.32 293.596C1162.71 297.756 1156.12 299.836 1147.54 299.836ZM1148.21 267.676C1150.13 267.676 1151.77 267.26 1153.11 266.428C1154.45 265.532 1155.51 264.284 1156.28 262.684C1157.05 261.02 1157.43 259.036 1157.43 256.732C1157.43 253.276 1156.6 250.588 1154.93 248.668C1153.27 246.748 1151.03 245.788 1148.21 245.788C1146.42 245.788 1144.82 246.236 1143.41 247.132C1142.01 247.964 1140.92 249.212 1140.15 250.876C1139.45 252.476 1139.09 254.428 1139.09 256.732C1139.09 260.188 1139.93 262.876 1141.59 264.796C1143.25 266.716 1145.46 267.676 1148.21 267.676ZM1192.95 282.364C1190.13 282.364 1187.95 281.628 1186.42 280.156C1184.95 278.684 1184.21 276.54 1184.21 273.724V241.948C1184.21 239.196 1184.91 237.084 1186.32 235.612C1187.79 234.14 1189.87 233.404 1192.56 233.404C1195.25 233.404 1197.3 234.14 1198.71 235.612C1200.11 237.084 1200.82 239.196 1200.82 241.948V245.884H1199.86C1200.5 242.044 1202.13 239.004 1204.75 236.764C1207.44 234.524 1210.77 233.34 1214.74 233.212C1216.59 233.148 1217.97 233.628 1218.87 234.652C1219.83 235.612 1220.34 237.436 1220.4 240.124C1220.4 242.428 1219.92 244.252 1218.96 245.596C1218 246.94 1216.18 247.74 1213.49 247.996L1211.28 248.188C1207.89 248.508 1205.43 249.468 1203.89 251.068C1202.35 252.604 1201.59 254.908 1201.59 257.98V273.724C1201.59 276.54 1200.85 278.684 1199.38 280.156C1197.91 281.628 1195.76 282.364 1192.95 282.364ZM1241.78 282.556C1238.14 282.556 1234.9 281.884 1232.09 280.54C1229.34 279.196 1227.16 277.372 1225.56 275.068C1224.02 272.7 1223.26 270.012 1223.26 267.004C1223.26 263.548 1224.15 260.828 1225.94 258.844C1227.74 256.86 1230.62 255.452 1234.58 254.62C1238.55 253.724 1243.83 253.276 1250.42 253.276H1255.7V261.34H1250.42C1247.93 261.34 1245.85 261.532 1244.18 261.916C1242.58 262.236 1241.4 262.78 1240.63 263.548C1239.86 264.252 1239.48 265.18 1239.48 266.332C1239.48 267.804 1239.99 269.02 1241.02 269.98C1242.1 270.94 1243.64 271.42 1245.62 271.42C1247.22 271.42 1248.63 271.068 1249.85 270.364C1251.13 269.66 1252.15 268.7 1252.92 267.484C1253.69 266.204 1254.07 264.732 1254.07 263.068V251.932C1254.07 249.628 1253.46 247.996 1252.25 247.036C1251.1 246.076 1249.08 245.596 1246.2 245.596C1244.66 245.596 1242.94 245.788 1241.02 246.172C1239.1 246.492 1236.95 247.1 1234.58 247.996C1232.86 248.636 1231.38 248.732 1230.17 248.284C1228.95 247.836 1227.99 247.068 1227.29 245.98C1226.65 244.892 1226.33 243.708 1226.33 242.428C1226.39 241.148 1226.81 239.932 1227.58 238.78C1228.41 237.628 1229.66 236.732 1231.32 236.092C1234.39 234.94 1237.21 234.172 1239.77 233.788C1242.39 233.404 1244.79 233.212 1246.97 233.212C1252.22 233.212 1256.54 233.98 1259.93 235.516C1263.38 236.988 1265.94 239.292 1267.61 242.428C1269.34 245.5 1270.2 249.468 1270.2 254.332V273.724C1270.2 276.54 1269.53 278.684 1268.18 280.156C1266.84 281.628 1264.89 282.364 1262.33 282.364C1259.7 282.364 1257.69 281.628 1256.28 280.156C1254.94 278.684 1254.26 276.54 1254.26 273.724V271.228L1254.84 272.572C1254.52 274.62 1253.78 276.38 1252.63 277.852C1251.48 279.324 1249.98 280.476 1248.12 281.308C1246.26 282.14 1244.15 282.556 1241.78 282.556ZM1288.57 282.364C1285.88 282.364 1283.8 281.628 1282.33 280.156C1280.86 278.684 1280.12 276.54 1280.12 273.724V241.948C1280.12 239.196 1280.83 237.084 1282.23 235.612C1283.71 234.14 1285.79 233.404 1288.47 233.404C1291.16 233.404 1293.21 234.14 1294.62 235.612C1296.03 237.084 1296.73 239.196 1296.73 241.948V247.228L1295.67 242.524C1297.02 239.708 1299 237.468 1301.63 235.804C1304.31 234.076 1307.48 233.212 1311.13 233.212C1314.59 233.212 1317.53 234.044 1319.96 235.708C1322.46 237.372 1324.25 239.9 1325.34 243.292H1323.99C1325.47 240.156 1327.67 237.692 1330.62 235.9C1333.56 234.108 1336.83 233.212 1340.41 233.212C1344.12 233.212 1347.16 233.948 1349.53 235.42C1351.9 236.828 1353.66 239.068 1354.81 242.14C1356.03 245.148 1356.63 248.956 1356.63 253.564V273.724C1356.63 276.54 1355.87 278.684 1354.33 280.156C1352.86 281.628 1350.75 282.364 1347.99 282.364C1345.31 282.364 1343.23 281.628 1341.75 280.156C1340.28 278.684 1339.55 276.54 1339.55 273.724V254.044C1339.55 251.292 1339.13 249.308 1338.3 248.092C1337.47 246.876 1336.09 246.268 1334.17 246.268C1331.8 246.268 1329.98 247.1 1328.7 248.764C1327.48 250.428 1326.87 252.796 1326.87 255.868V273.724C1326.87 276.54 1326.14 278.684 1324.67 280.156C1323.19 281.628 1321.08 282.364 1318.33 282.364C1315.58 282.364 1313.47 281.628 1311.99 280.156C1310.52 278.684 1309.79 276.54 1309.79 273.724V254.044C1309.79 251.292 1309.37 249.308 1308.54 248.092C1307.71 246.876 1306.33 246.268 1304.41 246.268C1302.11 246.268 1300.31 247.1 1299.03 248.764C1297.82 250.428 1297.21 252.796 1297.21 255.868V273.724C1297.21 279.484 1294.33 282.364 1288.57 282.364ZM1429.35 282.556C1421.86 282.556 1415.43 281.116 1410.06 278.236C1404.68 275.356 1400.55 271.292 1397.67 266.044C1394.86 260.796 1393.45 254.652 1393.45 247.612C1393.45 242.364 1394.25 237.596 1395.85 233.308C1397.51 229.02 1399.88 225.34 1402.95 222.268C1406.09 219.196 1409.86 216.86 1414.28 215.26C1418.76 213.596 1423.78 212.764 1429.35 212.764C1432.3 212.764 1435.34 213.116 1438.47 213.82C1441.67 214.46 1444.49 215.452 1446.92 216.796C1448.71 217.756 1449.96 218.972 1450.66 220.444C1451.37 221.916 1451.59 223.42 1451.34 224.956C1451.14 226.492 1450.6 227.868 1449.7 229.084C1448.81 230.3 1447.66 231.132 1446.25 231.58C1444.84 231.964 1443.3 231.74 1441.64 230.908C1439.72 230.012 1437.8 229.34 1435.88 228.892C1434.02 228.38 1432.07 228.124 1430.02 228.124C1426.06 228.124 1422.73 228.892 1420.04 230.428C1417.42 231.9 1415.43 234.076 1414.09 236.956C1412.74 239.836 1412.07 243.388 1412.07 247.612C1412.07 251.836 1412.74 255.42 1414.09 258.364C1415.43 261.244 1417.42 263.452 1420.04 264.988C1422.73 266.46 1426.06 267.196 1430.02 267.196C1431.69 267.196 1433.48 267.004 1435.4 266.62C1437.32 266.172 1439.21 265.5 1441.06 264.604C1442.98 263.772 1444.68 263.548 1446.15 263.932C1447.69 264.316 1448.9 265.084 1449.8 266.236C1450.76 267.388 1451.37 268.732 1451.62 270.268C1451.88 271.74 1451.66 273.212 1450.95 274.684C1450.31 276.156 1449.16 277.34 1447.5 278.236C1445.26 279.58 1442.47 280.636 1439.14 281.404C1435.88 282.172 1432.62 282.556 1429.35 282.556ZM1480.65 282.556C1475.4 282.556 1470.82 281.564 1466.92 279.58C1463.01 277.596 1459.97 274.748 1457.8 271.036C1455.62 267.324 1454.53 262.94 1454.53 257.884C1454.53 254.044 1455.14 250.62 1456.36 247.612C1457.57 244.54 1459.33 241.948 1461.64 239.836C1463.94 237.66 1466.69 236.028 1469.89 234.94C1473.09 233.788 1476.68 233.212 1480.65 233.212C1485.89 233.212 1490.47 234.204 1494.37 236.188C1498.28 238.172 1501.29 241.02 1503.4 244.732C1505.57 248.38 1506.66 252.764 1506.66 257.884C1506.66 261.66 1506.05 265.084 1504.84 268.156C1503.62 271.228 1501.86 273.852 1499.56 276.028C1497.32 278.14 1494.57 279.772 1491.3 280.924C1488.1 282.012 1484.55 282.556 1480.65 282.556ZM1480.65 269.98C1482.37 269.98 1483.91 269.564 1485.25 268.732C1486.6 267.836 1487.62 266.524 1488.33 264.796C1489.09 263.004 1489.48 260.7 1489.48 257.884C1489.48 253.596 1488.65 250.524 1486.98 248.668C1485.32 246.748 1483.21 245.788 1480.65 245.788C1478.92 245.788 1477.38 246.204 1476.04 247.036C1474.69 247.868 1473.64 249.18 1472.87 250.972C1472.1 252.7 1471.72 255.004 1471.72 257.884C1471.72 262.108 1472.55 265.18 1474.21 267.1C1475.88 269.02 1478.02 269.98 1480.65 269.98ZM1523.13 282.364C1520.44 282.364 1518.36 281.628 1516.89 280.156C1515.42 278.684 1514.68 276.54 1514.68 273.724V241.948C1514.68 239.196 1515.39 237.084 1516.8 235.612C1518.27 234.14 1520.35 233.404 1523.04 233.404C1525.72 233.404 1527.77 234.14 1529.18 235.612C1530.59 237.084 1531.29 239.196 1531.29 241.948V247.228L1530.24 242.524C1531.58 239.708 1533.56 237.468 1536.19 235.804C1538.88 234.076 1542.04 233.212 1545.69 233.212C1549.15 233.212 1552.09 234.044 1554.52 235.708C1557.02 237.372 1558.81 239.9 1559.9 243.292H1558.56C1560.03 240.156 1562.24 237.692 1565.18 235.9C1568.12 234.108 1571.39 233.212 1574.97 233.212C1578.68 233.212 1581.72 233.948 1584.09 235.42C1586.46 236.828 1588.22 239.068 1589.37 242.14C1590.59 245.148 1591.2 248.956 1591.2 253.564V273.724C1591.2 276.54 1590.43 278.684 1588.89 280.156C1587.42 281.628 1585.31 282.364 1582.56 282.364C1579.87 282.364 1577.79 281.628 1576.32 280.156C1574.84 278.684 1574.11 276.54 1574.11 273.724V254.044C1574.11 251.292 1573.69 249.308 1572.86 248.092C1572.03 246.876 1570.65 246.268 1568.73 246.268C1566.36 246.268 1564.54 247.1 1563.26 248.764C1562.04 250.428 1561.44 252.796 1561.44 255.868V273.724C1561.44 276.54 1560.7 278.684 1559.23 280.156C1557.76 281.628 1555.64 282.364 1552.89 282.364C1550.14 282.364 1548.03 281.628 1546.56 280.156C1545.08 278.684 1544.35 276.54 1544.35 273.724V254.044C1544.35 251.292 1543.93 249.308 1543.1 248.092C1542.27 246.876 1540.89 246.268 1538.97 246.268C1536.67 246.268 1534.88 247.1 1533.6 248.764C1532.38 250.428 1531.77 252.796 1531.77 255.868V273.724C1531.77 279.484 1528.89 282.364 1523.13 282.364ZM1618.78 282.556C1614.69 282.556 1611.33 281.82 1608.7 280.348C1606.08 278.812 1604.09 276.54 1602.75 273.532C1601.47 270.524 1600.83 266.716 1600.83 262.108V241.948C1600.83 239.132 1601.57 237.02 1603.04 235.612C1604.51 234.14 1606.62 233.404 1609.37 233.404C1612.13 233.404 1614.24 234.14 1615.71 235.612C1617.18 237.02 1617.92 239.132 1617.92 241.948V262.588C1617.92 264.892 1618.4 266.62 1619.36 267.772C1620.32 268.924 1621.82 269.5 1623.87 269.5C1626.17 269.5 1628.06 268.668 1629.53 267.004C1631.01 265.34 1631.74 263.132 1631.74 260.38V241.948C1631.74 239.132 1632.48 237.02 1633.95 235.612C1635.42 234.14 1637.53 233.404 1640.29 233.404C1643.04 233.404 1645.15 234.14 1646.62 235.612C1648.09 237.02 1648.83 239.132 1648.83 241.948V273.724C1648.83 279.484 1646.08 282.364 1640.57 282.364C1637.89 282.364 1635.81 281.628 1634.33 280.156C1632.86 278.684 1632.13 276.54 1632.13 273.724V268.156L1633.66 272.86C1632.25 275.996 1630.27 278.396 1627.71 280.06C1625.21 281.724 1622.24 282.556 1618.78 282.556ZM1667.22 282.364C1664.53 282.364 1662.45 281.628 1660.98 280.156C1659.51 278.684 1658.77 276.54 1658.77 273.724V241.948C1658.77 239.196 1659.48 237.084 1660.89 235.612C1662.36 234.14 1664.44 233.404 1667.13 233.404C1669.81 233.404 1671.86 234.14 1673.27 235.612C1674.68 237.084 1675.38 239.196 1675.38 241.948V246.46L1674.33 242.524C1675.86 239.516 1678.04 237.212 1680.85 235.612C1683.73 234.012 1687 233.212 1690.65 233.212C1694.42 233.212 1697.53 233.948 1699.96 235.42C1702.39 236.828 1704.21 239.068 1705.43 242.14C1706.65 245.148 1707.25 248.956 1707.25 253.564V273.724C1707.25 276.54 1706.52 278.684 1705.05 280.156C1703.57 281.628 1701.46 282.364 1698.71 282.364C1695.96 282.364 1693.85 281.628 1692.37 280.156C1690.9 278.684 1690.17 276.54 1690.17 273.724V254.236C1690.17 251.356 1689.65 249.308 1688.63 248.092C1687.67 246.876 1686.23 246.268 1684.31 246.268C1681.75 246.268 1679.7 247.1 1678.17 248.764C1676.63 250.364 1675.86 252.54 1675.86 255.292V273.724C1675.86 279.484 1672.98 282.364 1667.22 282.364ZM1725.44 282.364C1722.75 282.364 1720.67 281.564 1719.2 279.964C1717.73 278.364 1716.99 276.06 1716.99 273.052V242.716C1716.99 239.708 1717.73 237.404 1719.2 235.804C1720.67 234.204 1722.75 233.404 1725.44 233.404C1728.19 233.404 1730.3 234.204 1731.78 235.804C1733.31 237.404 1734.08 239.708 1734.08 242.716V273.052C1734.08 276.06 1733.34 278.364 1731.87 279.964C1730.4 281.564 1728.26 282.364 1725.44 282.364ZM1725.44 226.588C1722.43 226.588 1720.1 225.884 1718.43 224.476C1716.83 223.068 1716.03 221.02 1716.03 218.332C1716.03 215.708 1716.83 213.692 1718.43 212.284C1720.1 210.876 1722.43 210.172 1725.44 210.172C1728.58 210.172 1730.94 210.876 1732.54 212.284C1734.14 213.692 1734.94 215.708 1734.94 218.332C1734.94 221.02 1734.14 223.068 1732.54 224.476C1730.94 225.884 1728.58 226.588 1725.44 226.588ZM1768.76 282.556C1763.96 282.556 1759.99 281.82 1756.86 280.348C1753.78 278.876 1751.48 276.668 1749.94 273.724C1748.41 270.716 1747.64 266.972 1747.64 262.492V246.844H1744.38C1742.33 246.844 1740.73 246.3 1739.58 245.212C1738.49 244.124 1737.94 242.556 1737.94 240.508C1737.94 238.46 1738.49 236.924 1739.58 235.9C1740.73 234.812 1742.33 234.268 1744.38 234.268H1747.64V228.316C1747.64 225.5 1748.38 223.356 1749.85 221.884C1751.32 220.412 1753.43 219.676 1756.18 219.676C1758.94 219.676 1761.05 220.412 1762.52 221.884C1763.99 223.356 1764.73 225.5 1764.73 228.316V234.268H1772.6C1774.71 234.268 1776.31 234.812 1777.4 235.9C1778.55 236.924 1779.13 238.46 1779.13 240.508C1779.13 242.556 1778.55 244.124 1777.4 245.212C1776.31 246.3 1774.71 246.844 1772.6 246.844H1764.73V261.916C1764.73 264.284 1765.27 266.044 1766.36 267.196C1767.51 268.284 1769.3 268.828 1771.74 268.828C1772.63 268.828 1773.5 268.732 1774.33 268.54C1775.16 268.348 1775.93 268.252 1776.63 268.252C1777.66 268.188 1778.49 268.508 1779.13 269.212C1779.77 269.852 1780.09 271.356 1780.09 273.724C1780.09 275.644 1779.8 277.276 1779.22 278.62C1778.65 279.9 1777.62 280.828 1776.15 281.404C1775.26 281.724 1774.04 281.98 1772.5 282.172C1770.97 282.428 1769.72 282.556 1768.76 282.556ZM1799.44 299.644C1797.45 299.644 1795.85 299.132 1794.64 298.108C1793.42 297.084 1792.65 295.74 1792.33 294.076C1792.08 292.412 1792.37 290.652 1793.2 288.796L1799.63 274.876V281.788L1783.21 244.252C1782.38 242.332 1782.09 240.54 1782.35 238.876C1782.67 237.212 1783.53 235.9 1784.94 234.94C1786.35 233.916 1788.27 233.404 1790.7 233.404C1792.75 233.404 1794.38 233.884 1795.6 234.844C1796.88 235.74 1798.03 237.532 1799.05 240.22L1808.65 265.18H1805.39L1815.57 240.124C1816.59 237.5 1817.74 235.74 1819.02 234.844C1820.37 233.884 1822.16 233.404 1824.4 233.404C1826.32 233.404 1827.85 233.916 1829.01 234.94C1830.16 235.9 1830.86 237.212 1831.12 238.876C1831.37 240.54 1831.09 242.332 1830.25 244.252L1808.46 293.212C1807.31 295.772 1806.03 297.468 1804.62 298.3C1803.28 299.196 1801.55 299.644 1799.44 299.644ZM1845.71 259.324C1844.05 259.324 1842.7 258.78 1841.68 257.692C1840.72 256.604 1840.11 255.1 1839.86 253.18L1836.5 224.188C1836.05 220.86 1836.66 218.172 1838.32 216.124C1839.98 214.012 1842.45 212.956 1845.71 212.956C1849.04 212.956 1851.5 214.012 1853.1 216.124C1854.7 218.172 1855.28 220.86 1854.83 224.188L1851.57 253.18C1851.31 255.1 1850.7 256.604 1849.74 257.692C1848.78 258.78 1847.44 259.324 1845.71 259.324ZM1845.71 282.076C1842.83 282.076 1840.53 281.212 1838.8 279.484C1837.14 277.756 1836.3 275.484 1836.3 272.668C1836.3 269.916 1837.14 267.708 1838.8 266.044C1840.53 264.316 1842.83 263.452 1845.71 263.452C1848.72 263.452 1851.02 264.316 1852.62 266.044C1854.29 267.708 1855.12 269.916 1855.12 272.668C1855.12 275.484 1854.29 277.756 1852.62 279.484C1851.02 281.212 1848.72 282.076 1845.71 282.076Z" fill="white"/>
<defs>
<linearGradient id="paint0_linear_2466_95" x1="12928" y1="122" x2="12928" y2="25722" gradientUnits="userSpaceOnUse">
<stop stop-color="white"/>
<stop offset="1" stop-color="#229ED9"/>
</linearGradient>
<clipPath id="clip0_2466_95">
<rect width="256" height="256" fill="white" transform="translate(128 122)"/>
</clipPath>
</defs>
</svg>
